<?xml version="1.0"?>
<svg xmlns="http://www.w3.org/2000/svg" viewBox="0 0 64 64" width="512" height="512"><g id="Heart_rate" data-name="Heart rate"><path d="M50,35v.15A13.168,13.168,0,0,0,48,35,13,13,0,0,0,35,48a12.764,12.764,0,0,0,1.89,6.71c.05.09.1.18.16.27a12.635,12.635,0,0,0,1.56,2C35.31,59.53,31.84,61,29,61,21,61,8,49.36,8,35c0-5.89,1.58-9.98,4.27-12.75a13.191,13.191,0,0,1,3.4-2.57,21.894,21.894,0,0,1,7.41-2.3c.76-.11,1.54-.19,2.33-.25a17.666,17.666,0,0,1,1.1-2.09A16.7,16.7,0,0,1,30,11a15.489,15.489,0,0,1,2.27-1.58C38.98,5.55,46.42,7.81,47,8c-1.66,0-3,1.79-3,4s1.34,4,3,4c-4,0-4.88-1.04-6,0a7.24,7.24,0,0,0-1.67,2.39,15.813,15.813,0,0,1,5.69,3.16c2.67,2.37,4.43,5.87,4.87,10.86.01.07.01.15.02.22.04.44.06.9.07,1.36C49.99,34.32,50,34.66,50,35Z" style="fill:#ff3051"/><path d="M61,48A13,13,0,1,1,48,35a13.168,13.168,0,0,1,2,.15A13,13,0,0,1,61,48Z" style="fill:#57a4ff"/><path d="M61,48A13,13,0,1,1,48,35a13.168,13.168,0,0,1,2,.15A13,13,0,0,1,61,48Z" style="fill:#57a4ff"/><path d="M50,35v.15A13.168,13.168,0,0,0,48,35,13,13,0,0,0,35,48a12.764,12.764,0,0,0,1.89,6.71,12.444,12.444,0,0,0,1.16,2.27A13,13,0,0,1,45,33a13.168,13.168,0,0,1,2,.15,12.427,12.427,0,0,1,2.98.84C49.99,34.32,50,34.66,50,35Z" style="fill:#cd2a00"/><path d="M61,48a12.993,12.993,0,0,1-22.39,8.98,12.635,12.635,0,0,1-1.56-2A12.994,12.994,0,0,0,54.97,37.03,12.977,12.977,0,0,1,61,48Z" style="fill:#006df0"/><ellipse cx="58" cy="25" rx="3" ry="4" style="fill:#ab2300"/><path d="M58,21c-1.66,0-3,1.79-3,4s1.34,4,3,4c-4,0-4.88-1.04-6,0a7.4,7.4,0,0,0-2.09,3.63c-.41-5.11-2.18-8.67-4.89-11.08A20.148,20.148,0,0,1,58,21Z" style="fill:#cd2a00"/><ellipse cx="47" cy="12" rx="3" ry="4" style="fill:#ab2300"/><path d="M30.65,4.85l1.62,4.57A15.489,15.489,0,0,0,30,11a16.7,16.7,0,0,0-3.49,4.04L24.45,6.8a2.011,2.011,0,0,1,1.31-2.39l2.38-.79A1.994,1.994,0,0,1,30.65,4.85Z" style="fill:#cd2a00"/><path d="M18.65,4.85l4.43,12.53a21.894,21.894,0,0,0-7.41,2.3L12.45,6.8a2.011,2.011,0,0,1,1.31-2.39l2.38-.79A1.994,1.994,0,0,1,18.65,4.85Z" style="fill:#cd2a00"/><path d="M9.65,14.85l2.62,7.4C9.58,25.02,8,29.11,8,35L3.45,16.8a2.011,2.011,0,0,1,1.31-2.39l2.38-.79A1.994,1.994,0,0,1,9.65,14.85Z" style="fill:#cd2a00"/><path d="M50.982,34.327c-.011-.527-.034-1.044-.072-1.549a6.419,6.419,0,0,1,1.771-3.045c.255-.237.355-.256,1.5-.068A21.482,21.482,0,0,0,58,30c2.206,0,4-2.243,4-5,0-2.648-1.661-4.8-3.746-4.968a21.255,21.255,0,0,0-13.064.383,16.459,16.459,0,0,0-4.437-2.566,5.788,5.788,0,0,1,.928-1.116c.254-.238.354-.256,1.5-.068A21.482,21.482,0,0,0,47,17c2.206,0,4-2.243,4-5,0-2.648-1.66-4.8-3.745-4.968-.627-.2-7.683-2.273-14.422.98L31.6,4.518A3.015,3.015,0,0,0,27.82,2.672l-2.379.794A3.013,3.013,0,0,0,23.479,7.04l1.96,7.841c-.245.42-.457.867-.671,1.312-.342.032-.677.068-1.009.108L19.6,4.52A3.017,3.017,0,0,0,15.82,2.672l-2.379.794A3.013,3.013,0,0,0,11.479,7.04l3.038,12.15a15.333,15.333,0,0,0-1.82,1.268l-2.1-5.939A3.019,3.019,0,0,0,6.82,12.672l-2.379.794A3.013,3.013,0,0,0,2.479,17.04L7,35.139C7.087,49.979,20.34,62,29,62c2.862,0,6.218-1.326,9.526-3.723a13.988,13.988,0,1,0,12.456-23.95ZM59.949,47H57a1,1,0,0,0-.97.757l-.49,1.962L53.8,47.4a1,1,0,0,0-1.776.383l-.884,3.976L48.986,38.835a1,1,0,0,0-.97-.835,1.058,1.058,0,0,0-1,.8l-1.973,9.863-1.063-5.846A1,1,0,0,0,43.009,42H43a1,1,0,0,0-.98.8l-1.341,6.7-.75-1.877A1,1,0,0,0,39,47H36.051a11.99,11.99,0,0,1,23.9,0ZM60,25c0,1.626-.916,3-2,3s-2-1.374-2-3,.916-3,2-3S60,23.374,60,25Zm-4.776-3.586A5.636,5.636,0,0,0,54,25a5.891,5.891,0,0,0,.649,2.714l-.141-.023c-1.218-.2-2.182-.358-3.182.571a7.291,7.291,0,0,0-.918,1.038,16.083,16.083,0,0,0-3.6-7.335A19.1,19.1,0,0,1,55.224,21.414ZM49,12c0,1.626-.916,3-2,3s-2-1.374-2-3,.916-3,2-3S49,10.374,49,12ZM25.419,6.555a1,1,0,0,1,.654-1.192l2.38-.793a1.006,1.006,0,0,1,1.259.615L31.06,9a16.843,16.843,0,0,0-1.7,1.234,17.473,17.473,0,0,0-2.4,2.479Zm-12,0a1,1,0,0,1,.654-1.192l2.379-.793a1.006,1.006,0,0,1,1.259.616l4.035,11.419a23.372,23.372,0,0,0-5.4,1.635ZM5.073,15.363l2.38-.793a1,1,0,0,1,1.259.616L11.122,22a15.81,15.81,0,0,0-3.534,7.226L4.419,16.555A1,1,0,0,1,5.073,15.363ZM9,35c0-10.122,4.746-15.458,14.878-16.7a19.03,19.03,0,0,0-.718,2.687,16.038,16.038,0,0,0-5.923,4.37C12.2,31.3,12.643,37.84,13.036,39.266l1.928-.531a15.337,15.337,0,0,1,3.8-12.089A14.36,14.36,0,0,1,32.79,21.978l.42-1.956a16.692,16.692,0,0,0-7.821.185,17.279,17.279,0,0,1,.935-2.671,15.757,15.757,0,0,1,4.317-5.768c4.723-3.941,10.4-3.837,13.586-3.357A5.631,5.631,0,0,0,43,12a5.891,5.891,0,0,0,.649,2.714l-.141-.023c-1.22-.2-2.183-.358-3.184.572a8.033,8.033,0,0,0-2.277,8.04l1.906-.606a5.319,5.319,0,0,1-.008-3.016c5.837,2.267,8.8,6.983,9.031,14.368C48.652,34.027,48.329,34,48,34A13.988,13.988,0,0,0,37.137,56.815C34.271,58.843,31.348,60,29,60,21.285,60,9,48.559,9,35ZM48,60A12.01,12.01,0,0,1,36.051,49h2.272l1.748,4.372A1,1,0,0,0,41.98,53.2l.973-4.863,1.063,5.846a1,1,0,0,0,.975.821,1.012,1.012,0,0,0,.989-.8l1.931-9.65,2.1,12.619a1,1,0,0,0,.959.835H51a1,1,0,0,0,.976-.783L53.5,50.339,55.2,52.6a1,1,0,0,0,1.77-.357L57.781,49h2.168A12.01,12.01,0,0,1,48,60Z"/></g></svg>
